<svg xmlns="http://www.w3.org/2000/svg" viewBox="0 0 706 658"><path d="M 334.309 1.112 C 167.212 12.422, 44.094 144.698, 44.011 313.006 C 43.972 390.676, 68.784 450.449, 125.831 510.115 C 131.939 516.503, 136.651 522.016, 136.302 522.365 C 135.952 522.714, 105.142 523, 67.833 523 C 30.525 523, 0 523.215, 0 523.478 C 0 523.741, 2.883 530.153, 6.407 537.728 C 30.258 588.993, 38.911 605.255, 43.496 607.431 C 46.355 608.788, 53.224 609, 94.271 609 L 141.741 609 162.620 591.317 C 186.020 571.499, 238.845 526.026, 255.683 511.205 L 261.867 505.763 249.183 495.150 C 193.664 448.694, 167.065 404.617, 159.476 346.500 C 142.309 215.042, 231.896 103.824, 355 103.765 C 485.638 103.702, 576.393 234.452, 541.533 372.500 C 529.265 421.084, 502.113 459.215, 449.716 501.441 C 443.710 506.281, 442.588 504.508, 462.503 521.641 C 487.317 542.987, 537.555 586.039, 552 598.337 L 564.500 608.978 612.016 608.989 C 655.723 608.999, 659.798 608.857, 662.859 607.215 C 667.295 604.836, 675.121 589.889, 703.808 529 C 705.233 525.975, 706.534 523.275, 706.700 523 C 706.865 522.725, 676.516 522.619, 639.258 522.764 C 601.999 522.909, 570.897 522.791, 570.141 522.501 C 569.209 522.143, 571.014 519.649, 575.762 514.737 C 645.190 442.901, 672.196 357.746, 656.982 258.635 C 634.633 113.046, 519.626 9.674, 370.356 1.007 C 351.819 -0.069, 351.767 -0.069, 334.309 1.112 M 350.819 277.710 C 349.444 279.794, 337.616 298.825, 324.534 320 C 278.220 394.965, 265 416.597, 265 417.416 C 265 417.737, 279.085 418, 296.300 418 C 319.311 418, 327.918 418.318, 328.800 419.200 C 329.699 420.099, 330 432.003, 330 466.613 L 330 512.827 305.339 533.163 C 291.776 544.348, 277.038 556.491, 272.589 560.146 C 240.954 586.135, 224.720 599.447, 199.110 620.399 C 183.043 633.543, 170.258 644.633, 170.699 645.042 C 171.423 645.716, 194.150 648.946, 244.409 655.518 L 262.319 657.861 281.409 641.851 C 355.179 579.989, 352.983 581.746, 354.791 583.161 C 358.316 585.920, 387.454 610.246, 414.500 633.010 C 429.900 645.972, 442.958 656.859, 443.517 657.204 C 444.077 657.548, 451.052 656.976, 459.017 655.931 C 507.234 649.608, 535.582 645.628, 536.148 645.102 C 536.505 644.771, 520.611 631.225, 500.828 615 C 481.045 598.775, 453.753 576.365, 440.180 565.199 C 426.606 554.034, 406.846 537.834, 396.268 529.199 L 377.036 513.500 377.268 466 L 377.500 418.500 409.684 418 L 441.869 417.500 426.842 393 C 418.577 379.525, 401.809 352.300, 389.580 332.500 C 377.350 312.700, 364.491 291.775, 361.003 286 C 357.516 280.225, 354.360 275.144, 353.991 274.710 C 353.621 274.275, 352.194 275.625, 350.819 277.710" stroke="none" fill="black" fill-rule="evenodd"/></svg>